<svg width="28" height="28" viewBox="0 0 28 28" fill="none" xmlns="http://www.w3.org/2000/svg">
<path fill-rule="evenodd" clip-rule="evenodd" d="M12.6409 14.0077L12.6426 14.4208C12.6568 16.0594 12.7556 17.5213 12.926 18.4478C12.926 18.4645 13.1118 19.3833 13.2301 19.6892C13.416 20.1313 13.7519 20.5065 14.1732 20.7443C14.5105 20.9139 14.8643 21 15.2347 21C15.5258 20.9865 16.0059 20.84 16.3486 20.7172L16.6334 20.608C18.5195 19.8588 22.1251 17.4107 23.506 15.9135L23.6078 15.8089L24.0622 15.3185C24.3485 14.9433 24.5 14.4845 24.5 13.991C24.5 13.5489 24.3651 13.1068 24.0953 12.7496C24.0145 12.6338 23.8844 12.4854 23.7686 12.3599L23.3263 11.897C21.8045 10.355 18.5093 8.19214 16.8014 7.47549C16.8014 7.46007 15.7399 7.01671 15.2347 7L15.1672 7C14.3921 7 13.6679 7.44208 13.2976 8.1566C13.1964 8.35194 13.0994 8.73458 13.0255 9.07064L12.8929 9.70516C12.7414 10.7255 12.6409 12.2908 12.6409 14.0077ZM5.2538 12.2286C4.28526 12.2286 3.5 13.0215 3.5 13.9995C3.5 14.9775 4.28526 15.7704 5.2538 15.7704L9.56956 15.3887C10.3294 15.3887 10.9454 14.768 10.9454 13.9995C10.9454 13.2323 10.3294 12.6103 9.56956 12.6103L5.2538 12.2286Z" fill="#1F1F1F"/>
</svg>
