<svg width="28" height="28" viewBox="0 0 28 28" fill="none" xmlns="http://www.w3.org/2000/svg">
<path fill-rule="evenodd" clip-rule="evenodd" d="M20.0431 5.14492C20.0431 3.59325 21.3031 2.33325 22.8548 2.33325C24.4065 2.33325 25.6665 3.59325 25.6665 5.14492C25.6665 6.69659 24.4065 7.95659 22.8548 7.95659C21.3031 7.95659 20.0431 6.69659 20.0431 5.14492ZM15.5513 17.2191L18.923 12.8686L18.8763 12.8919C19.063 12.6353 19.098 12.3086 18.9697 12.0169C18.8425 11.7253 18.5613 11.5269 18.2592 11.5036C17.943 11.4686 17.6292 11.6086 17.4413 11.8653L14.6192 15.5169L11.3863 12.9736C11.188 12.8219 10.9547 12.7624 10.7213 12.7869C10.4892 12.8219 10.2792 12.9491 10.138 13.1358L6.68584 17.6286L6.61467 17.7336C6.41634 18.1058 6.50967 18.5841 6.85967 18.8419C7.02301 18.9469 7.19801 19.0169 7.39634 19.0169C7.66584 19.0286 7.92134 18.8874 8.08467 18.6669L11.013 14.8974L14.338 17.3953L14.443 17.4641C14.8163 17.6624 15.283 17.5703 15.5513 17.2191ZM18.0247 4.41027C17.978 4.70194 17.9547 4.9936 17.9547 5.28527C17.9547 7.91027 20.078 10.0324 22.6913 10.0324C22.983 10.0324 23.263 9.9986 23.5547 9.95193V19.3658C23.5547 23.3219 21.2213 25.6669 17.2547 25.6669H8.63417C4.66634 25.6669 2.33301 23.3219 2.33301 19.3658V10.7336C2.33301 6.76693 4.66634 4.41027 8.63417 4.41027H18.0247Z" fill="#BCBCBC"/>
</svg>
