<svg width="20" height="20" viewBox="0 0 20 20" fill="none" xmlns="http://www.w3.org/2000/svg">
<g clip-path="url(#clip0_10_3479)">
<path d="M18.75 20H0V18.75H1.25V9.375C1.25 8.3125 2.0625 7.5 3.125 7.5H10.625C11.6875 7.5 12.5 8.3125 12.5 9.375V18.75H13.125V8.75C13.125 7.6875 12.3125 6.875 11.25 6.875H7.5V1.875C7.5 0.8125 8.3125 0 9.375 0H16.875C17.9375 0 18.75 0.8125 18.75 1.875V18.75H20V20H18.75ZM6.25 10H3.75V11.25H6.25V10ZM6.25 12.5H3.75V13.75H6.25V12.5ZM6.25 15H3.75V16.25H6.25V15ZM10 10H7.5V11.25H10V10ZM10 12.5H7.5V13.75H10V12.5ZM10 15H7.5V16.25H10V15ZM12.5 2.5H10V3.75H12.5V2.5ZM12.5 5H10V6.25H12.5V5ZM16.25 2.5H13.75V3.75H16.25V2.5ZM16.25 5H13.75V6.25H16.25V5Z" fill="#3399FF"/>
</g>
<defs>
<clipPath id="clip0_10_3479">
<rect width="20" height="20" fill="white"/>
</clipPath>
</defs>
</svg>
