<svg width="28" height="28" viewBox="0 0 28 28" fill="none" xmlns="http://www.w3.org/2000/svg">
<path fill-rule="evenodd" clip-rule="evenodd" d="M2.33301 14.0002C2.33301 7.56016 7.54801 2.3335 13.9997 2.3335C20.4397 2.3335 25.6663 7.56016 25.6663 14.0002C25.6663 20.4518 20.4397 25.6668 13.9997 25.6668C7.54801 25.6668 2.33301 20.4518 2.33301 14.0002ZM16.6013 16.1352L18.4913 10.1618C18.6197 9.7535 18.2463 9.3685 17.838 9.49683L11.8647 11.3635C11.6197 11.4452 11.4213 11.6318 11.3513 11.8768L9.48467 17.8618C9.35634 18.2585 9.74134 18.6435 10.138 18.5152L16.088 16.6485C16.333 16.5785 16.5313 16.3802 16.6013 16.1352Z" fill="#BCBCBC"/>
</svg>
