<svg width="28" height="28" viewBox="0 0 28 28" fill="none" xmlns="http://www.w3.org/2000/svg">
<path d="M10.6571 24.2355V20.6681C10.6571 19.7575 11.4007 19.0193 12.318 19.0193H15.6712C16.1117 19.0193 16.5342 19.193 16.8457 19.5022C17.1572 19.8114 17.3321 20.2308 17.3321 20.6681V24.2355C17.3294 24.6141 17.4789 24.9781 17.7476 25.2468C18.0163 25.5155 18.3819 25.6666 18.7633 25.6666H21.051C22.1194 25.6693 23.145 25.2499 23.9015 24.5009C24.658 23.7518 25.0832 22.7347 25.0832 21.674V11.5113C25.0831 10.6545 24.7006 9.84173 24.0386 9.29203L16.2562 3.12177C14.9024 2.03991 12.9628 2.07484 11.6495 3.20473L4.04468 9.29203C3.35137 9.82553 2.93698 10.6407 2.9165 11.5113V21.6637C2.9165 23.8744 4.72178 25.6666 6.94871 25.6666H9.18418C9.97627 25.6666 10.62 25.0322 10.6257 24.2459L10.6571 24.2355Z" fill="#0373F3"/>
</svg>
