<svg width="22" height="22" viewBox="0 0 22 22" fill="none" xmlns="http://www.w3.org/2000/svg">
<g clip-path="url(#clip0_10_3439)">
<path d="M19.9761 17.1449C19.6434 17.9135 19.2496 18.6211 18.7933 19.2715C18.1714 20.1583 17.6621 20.7721 17.2697 21.113C16.6613 21.6725 16.0095 21.959 15.3115 21.9753C14.8104 21.9753 14.2061 21.8327 13.5026 21.5434C12.7969 21.2555 12.1483 21.113 11.5553 21.113C10.9333 21.113 10.2663 21.2555 9.55281 21.5434C8.83823 21.8327 8.26259 21.9834 7.82246 21.9984C7.15312 22.0269 6.48594 21.7322 5.81999 21.113C5.39494 20.7422 4.86329 20.1067 4.22639 19.2064C3.54306 18.2449 2.98126 17.13 2.54114 15.8589C2.06978 14.486 1.8335 13.1565 1.8335 11.8694C1.8335 10.3951 2.15208 9.12346 2.79019 8.05785C3.2917 7.20191 3.95887 6.52672 4.79389 6.03105C5.62892 5.53539 6.53116 5.28281 7.5028 5.26664C8.03445 5.26664 8.73163 5.4311 9.59803 5.7543C10.462 6.07858 11.0167 6.24304 11.2599 6.24304C11.4418 6.24304 12.058 6.05074 13.1027 5.66739C14.0906 5.31187 14.9244 5.16466 15.6075 5.22265C17.4584 5.37203 18.849 6.10167 19.7738 7.4162C18.1184 8.41921 17.2995 9.82404 17.3158 11.6262C17.3308 13.03 17.84 14.1981 18.8409 15.1256C19.2944 15.5561 19.8009 15.8888 20.3645 16.1251C20.2423 16.4795 20.1133 16.819 19.9761 17.1449ZM15.7311 0.44037C15.7311 1.54062 15.3291 2.56792 14.5279 3.51878C13.561 4.64917 12.3915 5.30236 11.1233 5.19929C11.1072 5.06729 11.0978 4.92837 11.0978 4.78239C11.0978 3.72615 11.5576 2.59576 12.3741 1.67152C12.7818 1.20356 13.3003 0.814453 13.929 0.504058C14.5564 0.198295 15.1499 0.0292008 15.708 0.000244141C15.7243 0.147331 15.7311 0.294426 15.7311 0.440355V0.44037Z" fill="white"/>
</g>
<defs>
<clipPath id="clip0_10_3439">
<rect width="22" height="22" fill="white"/>
</clipPath>
</defs>
</svg>
