<svg width="22" height="22" viewBox="0 0 22 22" fill="none" xmlns="http://www.w3.org/2000/svg">
<ellipse cx="10.6137" cy="6.67149" rx="4.37986" ry="4.37986" stroke="#C5C5C5" stroke-width="1.5" stroke-linecap="round" stroke-linejoin="round"/>
<path fill-rule="evenodd" clip-rule="evenodd" d="M3.66652 17.1428C3.66534 16.8349 3.7342 16.5308 3.86789 16.2535C4.28742 15.4144 5.47049 14.9697 6.45218 14.7683C7.16017 14.6172 7.87795 14.5163 8.60016 14.4663C9.93727 14.3488 11.2821 14.3488 12.6192 14.4663C13.3414 14.5169 14.0591 14.6178 14.7672 14.7683C15.7489 14.9697 16.932 15.3724 17.3515 16.2535C17.6203 16.8188 17.6203 17.4752 17.3515 18.0406C16.932 18.9216 15.7489 19.3244 14.7672 19.5174C14.06 19.6747 13.342 19.7785 12.6192 19.8278C11.5309 19.9201 10.4375 19.9369 9.34692 19.8782C9.0952 19.8782 8.85187 19.8782 8.60016 19.8278C7.88008 19.7791 7.1648 19.6753 6.46057 19.5174C5.47049 19.3244 4.29581 18.9216 3.86789 18.0406C3.73489 17.7601 3.66609 17.4534 3.66652 17.1428Z" stroke="#C5C5C5" stroke-width="1.5" stroke-linecap="round" stroke-linejoin="round"/>
</svg>
