<svg width="14" height="14" viewBox="0 0 14 14" fill="none" xmlns="http://www.w3.org/2000/svg">
<path fill-rule="evenodd" clip-rule="evenodd" d="M12.7093 6.1477C12.6303 6.22442 12.5231 6.26827 12.4103 6.26827C11.9928 6.26827 11.6543 6.5971 11.6543 6.99718C11.6543 7.4 11.9889 7.72718 12.4024 7.73157C12.6354 7.73376 12.8334 7.8916 12.8334 8.11794V9.5237C12.8334 10.7069 11.8461 11.6666 10.6276 11.6666H8.78844C8.59833 11.6666 8.44431 11.517 8.44431 11.3323V10.1485C8.44431 9.9183 8.25814 9.73744 8.0212 9.73744C7.7899 9.73744 7.59808 9.9183 7.59808 10.1485V11.3323C7.59808 11.517 7.44407 11.6666 7.25451 11.6666H3.37258C2.15966 11.6666 1.16675 10.7075 1.16675 9.5237V8.11794C1.16675 7.8916 1.36477 7.73376 1.59776 7.73157C2.01185 7.72718 2.34583 7.4 2.34583 6.99718C2.34583 6.60806 2.01862 6.31211 1.58986 6.31211C1.47703 6.31211 1.36984 6.26827 1.29086 6.19154C1.21188 6.11481 1.16675 6.01068 1.16675 5.90107V4.48162C1.16675 3.30002 2.16191 2.33325 3.37822 2.33325H7.25451C7.44407 2.33325 7.59808 2.48287 7.59808 2.66756V4.07058C7.59808 4.29528 7.7899 4.48162 8.0212 4.48162C8.25814 4.48162 8.44431 4.29528 8.44431 4.07058V2.66756C8.44431 2.48287 8.59833 2.33325 8.78844 2.33325H10.6276C11.8461 2.33325 12.8334 3.29234 12.8334 4.47614V5.85723C12.8334 5.96684 12.7883 6.07097 12.7093 6.1477ZM8.0212 8.67422C8.25814 8.67422 8.44431 8.48788 8.44431 8.26318V6.07097C8.44431 5.84627 8.25814 5.65993 8.0212 5.65993C7.78989 5.65993 7.59808 5.84627 7.59808 6.07097V8.26318C7.59808 8.48788 7.78989 8.67422 8.0212 8.67422Z" fill="#0373F3"/>
</svg>
