<svg width="24" height="24" viewBox="0 0 24 24" fill="none" xmlns="http://www.w3.org/2000/svg">
<path d="M10.1174 17.9867H2.8833" stroke="white" stroke-width="1.5" stroke-linecap="round" stroke-linejoin="round"/>
<path fill-rule="evenodd" clip-rule="evenodd" d="M21.1179 17.9864C21.1179 19.577 19.8285 20.8664 18.2379 20.8664C16.6473 20.8664 15.3579 19.577 15.3579 17.9864C15.3579 16.3947 16.6473 15.1064 18.2379 15.1064C19.8285 15.1064 21.1179 16.3947 21.1179 17.9864Z" stroke="white" stroke-width="1.5" stroke-linecap="round" stroke-linejoin="round"/>
<path d="M13.8828 6.26206H21.1181" stroke="white" stroke-width="1.5" stroke-linecap="round" stroke-linejoin="round"/>
<path fill-rule="evenodd" clip-rule="evenodd" d="M2.88281 6.26208C2.88281 7.85384 4.17222 9.14208 5.76281 9.14208C7.3534 9.14208 8.64281 7.85384 8.64281 6.26208C8.64281 4.67149 7.3534 3.38208 5.76281 3.38208C4.17222 3.38208 2.88281 4.67149 2.88281 6.26208Z" stroke="white" stroke-width="1.5" stroke-linecap="round" stroke-linejoin="round"/>
</svg>
