<svg width="32" height="16" viewBox="0 0 32 16" fill="none" xmlns="http://www.w3.org/2000/svg">
<path d="M27.415 10.468C25.8928 10.9286 10.4135 15.4075 10.4135 15.4075C10.4135 15.4075 6.12793 16.8419 2.95684 12.9747L6.47598 11.5122C7.0877 11.7196 7.65723 11.702 8.41309 11.4594L12.4139 10.468L6.41269 1.58053C6.41269 1.58053 5.19629 -0.349548 9.41152 0.592639C9.41152 0.592639 17.0369 6.43209 18.4115 7.50435C18.4115 7.50435 19.1146 7.90514 20.4119 7.50435L26.4131 5.52857C26.4131 5.52857 30.4771 4.28756 31.4123 6.51646C32.3967 8.85435 28.9338 10.0075 27.415 10.468ZM2.28184 12.261C0.713867 10.5102 0.415039 9.48013 0.415039 9.48013C0.415039 9.48013 0.738477 7.33912 3.41387 9.48013C4.19434 10.1059 5.02402 10.5348 5.55137 10.8864L2.28184 12.261Z" fill="#FF647C"/>
</svg>
