<svg width="28" height="28" viewBox="0 0 28 28" fill="none" xmlns="http://www.w3.org/2000/svg">
<path fill-rule="evenodd" clip-rule="evenodd" d="M19.1546 7.54825H19.3936C22.5342 7.54825 25.0832 10.1733 25.0832 13.3933V19.8333C25.0832 23.0533 22.5342 25.6666 19.3936 25.6666H8.6061C5.46544 25.6666 2.9165 23.0533 2.9165 19.8333V13.3933C2.9165 10.1733 5.46544 7.54825 8.6061 7.54825H8.84506C8.86782 6.14825 9.40264 4.84159 10.3699 3.86159C11.3485 2.86992 12.6002 2.36825 14.0112 2.33325C16.8333 2.33325 19.1205 4.66659 19.1546 7.54825ZM11.5647 5.10992C10.9275 5.76325 10.5747 6.62659 10.5519 7.54825H17.4477C17.4136 5.63492 15.8888 4.08325 14.0112 4.08325C13.135 4.08325 12.2247 4.44492 11.5647 5.10992ZM18.3239 12.0399C18.8019 12.0399 19.1774 11.6433 19.1774 11.1649V9.81158C19.1774 9.33325 18.8019 8.93658 18.3239 8.93658C17.8574 8.93658 17.4705 9.33325 17.4705 9.81158V11.1649C17.4705 11.6433 17.8574 12.0399 18.3239 12.0399ZM10.4268 11.1649C10.4268 11.6433 10.0513 12.0399 9.57333 12.0399C9.10679 12.0399 8.71989 11.6433 8.71989 11.1649V9.81158C8.71989 9.33325 9.10679 8.93658 9.57333 8.93658C10.0513 8.93658 10.4268 9.33325 10.4268 9.81158V11.1649Z" fill="#BCBCBC"/>
</svg>
